<svg id="Слой_1" data-name="Слой 1" xmlns="http://www.w3.org/2000/svg" viewBox="0 0 386 256"><defs><style>.cls-1{fill:#605373;}.cls-2{fill:#fff;}.cls-3{fill:#371b45;}.cls-4{opacity:0.35;}.cls-5{opacity:0.5;}.cls-6{fill:#121a28;}.cls-7{fill:#44ac34;}.cls-8{fill:#1d1d1b;}.cls-9{fill:#913b8e;}.cls-10{fill:#f39041;}</style></defs><rect class="cls-1" x="-77.73" y="-53.69" width="488.06" height="369.28"/><path class="cls-2" d="M245,261.66v63.76a19.56,19.56,0,0,1-19.5,19.49H161a19.56,19.56,0,0,1-19.5-19.49V261.66a19.55,19.55,0,0,1,19.5-19.5H225.5a19.58,19.58,0,0,1,19.5,19.5Z"/><path class="cls-3" d="M225.5,242.16A19.55,19.55,0,0,1,245,261.65v63.77a19.55,19.55,0,0,1-19.49,19.49H161a19.55,19.55,0,0,1-19.49-19.49V261.65A19.55,19.55,0,0,1,161,242.16H225.5m0-3.31H161a22.83,22.83,0,0,0-22.8,22.8v63.77a22.83,22.83,0,0,0,22.8,22.8H225.5a22.83,22.83,0,0,0,22.8-22.8V261.65a22.83,22.83,0,0,0-22.8-22.8Z"/><path class="cls-2" d="M217.78,239.88c24,8.24,25.78,27.26,42.39,38.29,7.19,4.78,14.7,3.62,23.67,1.21,4.78-1.28,7.08,3.46,7.39,11.57.44,11.3-3.45,19.3-27,19.76-27.42.53-32.16-31.92-32.16-31.92"/><path class="cls-3" d="M263.6,312.37c-11.53,0-20.9-5.73-27.14-16.6a52.66,52.66,0,0,1-6-16.74,1.65,1.65,0,1,1,3.27-.48,50.44,50.44,0,0,0,5.65,15.66c5.8,10.06,14.16,15.07,24.85,14.84,11.21-.22,18.43-2.19,22.06-6,2.49-2.64,3.51-6.34,3.29-12-.27-6.85-1.88-9-2.82-9.72a2.64,2.64,0,0,0-2.49-.31c-8.59,2.3-17,3.92-25-1.43-7-4.65-11.49-10.71-15.83-16.57-6.39-8.65-12.44-16.82-26.19-21.54a1.65,1.65,0,0,1,1.08-3.12c14.72,5.05,21.35,14,27.77,22.69,4.36,5.89,8.48,11.46,15,15.79,6.28,4.18,12.69,3.57,22.32,1a6.06,6.06,0,0,1,5.32.85c2.51,1.85,3.91,6,4.15,12.25.17,4.46-.15,10.12-4.19,14.4-4.32,4.59-12.08,6.84-24.4,7.08Z"/><path class="cls-2" d="M168.67,239.88c-24,8.24-27.48,27.92-43.83,39.34-4.87,3.41-11.59,5.28-22.22,3.62-4.89-.77-10.71-1.45-11.71,6.61-.82,6.55,10.5,21.3,31.28,21.26,27.42-.07,32.16-31.92,32.16-31.92Z"/><path class="cls-3" d="M122.09,312.36c-15.86,0-24.77-8.13-27.87-11.63-3.5-4-5.35-8.26-5-11.49s1.53-5.47,3.39-6.86c3-2.3,7.19-1.65,10.21-1.17,9.06,1.41,15.74.35,21-3.34,6.26-4.38,10.53-10,15.06-15.88,7-9.11,14.2-18.53,29.17-23.67a1.65,1.65,0,1,1,1.08,3.12c-14,4.82-20.94,13.84-27.62,22.56-4.49,5.86-9.12,11.91-15.8,16.58-5.94,4.15-13.61,5.43-23.43,3.89-3-.48-5.93-.79-7.71.55-1.13.85-1.82,2.36-2.1,4.63-.21,1.7.75,5,4.15,8.89,2.8,3.16,10.87,10.51,25.39,10.51h.1c25.7-.05,30.48-30.2,30.53-30.51a1.65,1.65,0,0,1,1.88-1.39A1.66,1.66,0,0,1,156,279a51.66,51.66,0,0,1-6,16.52c-6.34,11-15.95,16.78-27.78,16.81Z"/><path class="cls-2" d="M242.18,343.69H144.35a237.47,237.47,0,0,1,1.82-27.16q.51-4.38,1.25-9.23a244.36,244.36,0,0,1,12.08-48q1.41-3.79,3-7.58,1.26-3,2.64-6c.68-1.44,1.37-2.88,2.09-4.32h52.08q1.08,2.16,2.09,4.32c.93,2,1.82,4,2.67,6q1.83,4.32,3.41,8.66a246.6,246.6,0,0,1,11.64,46.8c.49,3.23.9,6.33,1.25,9.26A235.34,235.34,0,0,1,242.18,343.69Z"/><g class="cls-4"><path class="cls-3" d="M238.16,246.87c-11.68,14.69-29.1,23.42-48,22-16.46-1.2-30.9-9.83-40.87-22.77a19.35,19.35,0,0,1,11.77-4H225.5A19.39,19.39,0,0,1,238.16,246.87Z"/></g><path class="cls-2" d="M257.67,214.7h0a1.33,1.33,0,0,1-1.33-1.32l-.22-38.11a1.33,1.33,0,0,1,1.32-1.33h0a13.89,13.89,0,0,1,14,13.8l.07,13A13.89,13.89,0,0,1,257.67,214.7Z"/><path class="cls-3" d="M257.66,215a1.65,1.65,0,0,1-1.15-.47,1.63,1.63,0,0,1-.48-1.16l-.22-38.11a1.65,1.65,0,0,1,.47-1.15,1.64,1.64,0,0,1,1.16-.49,14.2,14.2,0,0,1,14.27,14.11l.07,13A14.19,14.19,0,0,1,257.67,215h0Zm-.14-40.76h-.08a1,1,0,0,0-1,1l.22,38.11a1,1,0,0,0,1,1h0a13.57,13.57,0,0,0,13.49-13.65l-.08-13a13.55,13.55,0,0,0-13.56-13.5Z"/><g class="cls-4"><path class="cls-3" d="M271.43,194.65l0,6.09a13.89,13.89,0,0,1-13.8,14,1.32,1.32,0,0,1-1.33-1.32l-.06-10.13a1.31,1.31,0,0,0,1.2.78h.91A13.84,13.84,0,0,0,271.43,194.65Z"/></g><path class="cls-3" d="M257.66,216.43a3,3,0,0,1-3.05-3l-.22-38.11a3.06,3.06,0,0,1,3-3.07,15.62,15.62,0,0,1,15.7,15.52l.07,13a15.62,15.62,0,0,1-15.52,15.7h0Zm.2-40.75.21,37.28a12.15,12.15,0,0,0,11.67-12.21l-.07-13a12.15,12.15,0,0,0-11.81-12.07Z"/><path class="cls-2" d="M131.65,174.65h0A1.32,1.32,0,0,1,133,176l.22,38.1a1.33,1.33,0,0,1-1.32,1.33h0a13.87,13.87,0,0,1-14-13.8l-.07-13A13.88,13.88,0,0,1,131.65,174.65Z"/><path class="cls-3" d="M131.8,215.72a14.22,14.22,0,0,1-14.19-14.12l-.07-13a14.2,14.2,0,0,1,14.11-14.27h0a1.64,1.64,0,0,1,1.16.47,1.62,1.62,0,0,1,.48,1.15l.22,38.11a1.66,1.66,0,0,1-1.63,1.65ZM131.65,175a13.58,13.58,0,0,0-13.49,13.65l.07,13a13.58,13.58,0,0,0,13.57,13.49h.08a1,1,0,0,0,1-1L132.67,176a1,1,0,0,0-.3-.72,1,1,0,0,0-.72-.29Z"/><g class="cls-4"><path class="cls-3" d="M133.14,203.5l.06,10.57a1.33,1.33,0,0,1-1.32,1.33,13.88,13.88,0,0,1-14-13.79l0-5.48a13.9,13.9,0,0,0,12.69,8.08H132A1.32,1.32,0,0,0,133.14,203.5Z"/></g><path class="cls-3" d="M131.8,217.14a15.63,15.63,0,0,1-15.61-15.53l-.07-13a15.62,15.62,0,0,1,15.52-15.7h0a3.07,3.07,0,0,1,2.17.88,3,3,0,0,1,.9,2.16l.22,38.1a3.07,3.07,0,0,1-3,3.08Zm-.55-40.75a12.16,12.16,0,0,0-11.67,12.21l.07,13a12.17,12.17,0,0,0,11.81,12.08Z"/><circle class="cls-2" cx="194.67" cy="194.67" r="64.94"/><path class="cls-3" d="M194.76,259.93c-1.45,0-2.9-.05-4.36-.14a65.22,65.22,0,1,1,4.36.14ZM194.62,130a64.63,64.63,0,0,0-4.17,129.13c1.42.09,2.85.14,4.26.14a64.63,64.63,0,0,0,4.18-129.13C197.46,130.09,196,130,194.62,130Z"/><g class="cls-4"><path class="cls-3" d="M259.44,189.9a64.95,64.95,0,1,1-129.58.53c.07-1,.16-2.06.28-3.07a64.94,64.94,0,0,0,129.3,2.54Z"/></g><path class="cls-3" d="M194.71,261.35c-1.46,0-2.92-.05-4.4-.15a66.56,66.56,0,1,1,4.4.15Zm-.09-129.89a63.21,63.21,0,0,0-4.08,126.29c1.39.09,2.79.14,4.17.14A63.21,63.21,0,0,0,198.8,131.6C197.4,131.51,196,131.46,194.62,131.46Z"/><path class="cls-3" d="M259.15,200.57a58.31,58.31,0,0,1-12.88,33.66c-5.65,7-28,18.74-54.84,17.63-24.87-1-46.83-15.42-51.74-23a58.24,58.24,0,0,1-9.45-34.79c1.69-33.58,31.25-46.06,66.85-44.27S260.84,167,259.15,200.57Z"/><path class="cls-3" d="M195.1,253.67c-1.23,0-2.48,0-3.74-.08-25.79-1.06-48-15.82-53.13-23.78A60,60,0,0,1,128.51,194c.83-16.49,8.09-28.87,21.56-36.8,11.75-6.92,28-10.07,47.1-9.1s35,5.72,46,13.78c12.61,9.24,18.58,22.29,17.75,38.78h0a59.87,59.87,0,0,1-13.26,34.66C242.28,242,221.74,253.67,195.1,253.67Zm-4.19-102.28c-20.87,0-57.06,5.43-58.94,42.78a56.46,56.46,0,0,0,9.17,33.76c4.68,7.21,26.11,21.2,50.36,22.2,26.89,1.12,48.38-10.71,53.42-17a56.45,56.45,0,0,0,12.5-32.67c.77-15.26-4.73-27.31-16.34-35.82C230.63,157,215.39,152.47,197,151.54,195.19,151.45,193.13,151.39,190.91,151.39Zm68.24,49.18h0Z"/><g class="cls-5"><ellipse class="cls-2" cx="238.43" cy="194.95" rx="11.49" ry="8.33" transform="translate(-5.65 382.78) rotate(-76.85)"/></g><g class="cls-5"><ellipse class="cls-2" cx="227.1" cy="217.17" rx="5.27" ry="4.53" transform="translate(-57.25 350.91) rotate(-68.91)"/></g><g class="cls-4"><path class="cls-6" d="M248.19,168.6c7.5,7.92,11.64,18.47,11,32a58.31,58.31,0,0,1-12.88,33.67c-5.65,7-28,18.74-54.84,17.64A80.13,80.13,0,0,1,165.06,246c33,.66,60.25-13.71,67.26-22.45a74,74,0,0,0,16.35-42.72A65,65,0,0,0,248.19,168.6Z"/></g><path class="cls-3" d="M255.09,172.53a1.69,1.69,0,0,1-1.16-.47l-.17-.15-.1-.17c-10.15-15.86-30.81-25.7-56.68-27s-47.55,6.69-59.08,22l-.13.14a1.67,1.67,0,0,1-2.37.12,1.7,1.7,0,0,1-.17-2.34C147.45,148.47,170,140,197.15,141.36c26.93,1.35,48.54,11.73,59.31,28.47a1.71,1.71,0,0,1-.14,2.17A1.69,1.69,0,0,1,255.09,172.53Z"/><g class="cls-5"><path class="cls-2" d="M143.71,214.79s-8.73-33.66,9.79-46,44.21-11,43.52-9.34c0,0-28.79,5.45-41,27.38C146.52,203.77,143.71,214.79,143.71,214.79Z"/></g><path class="cls-7" d="M132.87,113.48l-16.43.48a6.8,6.8,0,0,1-3.75-.72,5.83,5.83,0,0,1-1.4-.94,6.31,6.31,0,0,1-1.23-1.54,8.51,8.51,0,0,1-.89-2.24,11.93,11.93,0,0,1-.34-3c0-1.16,0-2.43,0-3.81s0-2.8,0-4.26,0-2.94.07-4.43.08-2.93.14-4.31c.1-3.22.23-6.49.39-9.83a6.64,6.64,0,0,1,1-2.94,7.63,7.63,0,0,1,2.07-2.12,8.15,8.15,0,0,1,4-1.25q2.55-.2,5.49-.24c2,0,3.79,0,5.49,0q3,0,5.93.1l-.72,10.74-4.6.09-2.56.08c-.59,0-1,0-1.2,0l-.51,0q-.67.09-1.32.24a3,3,0,0,0-1.16.51,2.76,2.76,0,0,0-.82,1,3.87,3.87,0,0,0-.36,1.61c0,.68-.07,1.5-.12,2.48s-.09,2-.14,3.13-.09,2.22-.12,3.33,0,2.11,0,3a10.43,10.43,0,0,0,.19,3.08,2.36,2.36,0,0,0,1,1.49,3.31,3.31,0,0,0,1.78.44c.72,0,1.6,0,2.63-.1,1.22-.06,2.47-.16,3.75-.29a35.7,35.7,0,0,1,3.57-.19Z"/><path class="cls-8" d="M145.68,74.32a12.4,12.4,0,0,1,1.88-.89,7.92,7.92,0,0,1,2-.46,2.74,2.74,0,0,1,1.56.15,2.36,2.36,0,0,1,1,1.11,15.71,15.71,0,0,1,.87,2.24,19.27,19.27,0,0,1,.53,2.33,14.4,14.4,0,0,1-.08,4.91,18.94,18.94,0,0,1-1.56,4.68,29.12,29.12,0,0,1-1.61,3c-.6,1-1.2,1.89-1.81,2.82a26.1,26.1,0,0,0-2,3.27A20.87,20.87,0,0,0,145.2,101a16,16,0,0,0,0,9.44,3.17,3.17,0,0,1,.2,1.11c0,.61-.36.86-1.06.77a5.5,5.5,0,0,1-1.16-.44,13.14,13.14,0,0,1-3.59-2.69,14.36,14.36,0,0,1-2.43-3.62,18,18,0,0,1-1.66-5.29,27.8,27.8,0,0,1-.29-5.93,29.91,29.91,0,0,1,1-6,28.19,28.19,0,0,1,2.15-5.66,24,24,0,0,1,3.18-4.8A16.3,16.3,0,0,1,145.68,74.32Zm1,37.28c0-.13-.08-.35-.14-.67a16.7,16.7,0,0,1-.15-6.29,20.18,20.18,0,0,1,2.07-6q.83-1.48,1.71-2.91c.6-1,1.2-1.89,1.81-2.82a33.25,33.25,0,0,0,1.73-3.13,20.1,20.1,0,0,0,1.26-3.32,14.54,14.54,0,0,0-.2-8.58c-.19-.61-.41-1.2-.65-1.78s-.49-1.15-.74-1.73c-.07-.16-.13-.33-.2-.51a.49.49,0,0,1,.1-.5.74.74,0,0,1,.53-.24,3.86,3.86,0,0,1,.58,0,6.58,6.58,0,0,1,1.56.49q.75.33,1.47.72A13.48,13.48,0,0,1,160.61,77a16.62,16.62,0,0,1,2.31,3.35,21.46,21.46,0,0,1,2.46,7.37,26.61,26.61,0,0,1,0,8,26.16,26.16,0,0,1-2.46,7.64,21.16,21.16,0,0,1-4.77,6.31,15.31,15.31,0,0,1-2.81,2.07,13,13,0,0,1-3.3,1.3,9.87,9.87,0,0,1-2.63.33,4.51,4.51,0,0,1-1.54-.28,1.69,1.69,0,0,1-.79-.65A5,5,0,0,1,146.64,111.6Z"/><path class="cls-9" d="M177.32,82l.29,10.21q1.83-.09,4.17-.27c1.55-.11,3.06-.2,4.5-.26l5.06-.29-.05,9.68H177.76l.48,12.67H168.07V73.07h25.24L192.73,83Z"/><path class="cls-10" d="M204.68,82,205,92.24c1.22-.06,2.61-.15,4.16-.27s3.06-.2,4.51-.26l5.06-.29,0,9.68H205.11l.48,12.67H195.43V73.07h25.24L220.09,83Z"/><path class="cls-8" d="M248.94,73.74V81.4L235,81.35l-.33,7.81,7.17-.48-.43,7.65-7-.38.15,8.67,13.77-1.78.58,10.54-26.25,0,.58-39.6Z"/><path class="cls-8" d="M277.36,73.74V81.4l-13.92-.05-.34,7.81,7.18-.48-.43,7.65-7-.38.15,8.67,13.77-1.78.58,10.54-26.25,0,.58-39.6Z"/><path class="cls-2" d="M110,9.61h19.59L128,54.13,143,53l.46,12H113.08Z"/><path class="cls-2" d="M181.88,11.5V21.85l-18.82-.07-.45,10.55,9.7-.65L171.72,42l-9.44-.52.2,11.71,18.61-2.41.79,14.26L146.4,65l.78-53.5Z"/><path class="cls-2" d="M214.22,55.7H201L199.12,65c-2.82-.08-5.33-.15-7.55-.19h-5.14c-.69,0-1.26,0-1.69.06s-.65.09-.65.13l9.7-53.5h22.58l14.32,51.42-14.64,1.17Zm-2-8.92L207.45,25.1,202.9,46.78Z"/><path class="cls-2" d="M233.81,66c-.08-3.17-.16-6-.22-8.59s-.13-5.49-.2-8.79-.14-6.66-.23-10.09q-.25-12-.65-27.4h14.78l17,39.38-1.5-39.38H276.9l-3.19,54.22L260.76,66,247.87,39l.78,26.36Z"/></svg>